<?xml version="1.0" encoding="iso-8859-1"?>
<!-- Uploaded to: SVG Repo, www.svgrepo.com, Generator: SVG Repo Mixer Tools -->
<svg height="800px" width="800px" version="1.1" id="Layer_1" xmlns="http://www.w3.org/2000/svg" xmlns:xlink="http://www.w3.org/1999/xlink" 
	 viewBox="0 0 512 512" xml:space="preserve">
<path style="fill:#F3437F;" d="M398.647,347.021c-10.193,10.192-26.718,10.194-36.911,0L165.002,150.287
	c-10.194-10.193-10.194-26.719-0.002-36.912l24.488-24.487c10.194-10.194,26.718-10.192,36.912,0.001l196.734,196.734
	c10.193,10.194,10.193,26.717,0,36.911L398.647,347.021z"/>
<path style="fill:#10BAFC;" d="M343.423,328.707l-78.493-78.493c46.151,47.817,45.641,123.989-1.542,171.172
	c-47.705,47.703-125.047,47.703-172.753,0c-47.705-47.706-47.705-125.048,0-172.753c47.183-47.182,123.355-47.693,171.172-1.542
	l-78.493-78.494c-44.698-1.681-89.942,14.526-124.064,48.649c-65.039,65.039-65.039,170.487,0,235.524
	c65.038,65.039,170.486,65.039,235.523,0C328.896,418.65,345.104,373.404,343.423,328.707z"/>
<path style="fill:#FF85B4;" d="M331.056,121.737c-18.244,18.245-44.21,14.543-65.253,6.555l117.926,117.925
	c-7.989-21.044-11.691-47.008,6.555-65.252c23.031-23.032,47.477-16.452,75.722-31.805c4.975-2.704,9.415-6.501,13.61-10.698
	c29.287-29.287,29.268-76.756-0.016-106.044c-29.286-29.282-76.755-29.302-106.043-0.015c-4.197,4.197-7.993,8.636-10.698,13.61
	C347.508,74.26,354.088,98.706,331.056,121.737z"/>
<path d="M281.223,189.433c-4.067-4.093-10.684-4.112-14.777-0.044c-4.093,4.069-4.113,10.684-0.044,14.777l0.172,0.173
	c2.042,2.054,4.725,3.082,7.41,3.082c2.664,0,5.329-1.012,7.367-3.039c4.093-4.069,4.112-10.684,0.044-14.777L281.223,189.433z"/>
<path d="M486.988,25.031C470.845,8.889,449.386,0,426.563,0c-22.813,0-44.261,8.885-60.394,25.017
	c-5.661,5.661-9.631,10.749-12.49,16.009c-7.001,12.882-9.875,25.044-12.41,35.776c-3.448,14.592-6.171,26.117-17.602,37.547
	c-6.785,6.786-15.317,10.083-26.086,10.083c-7.747,0-16.504-1.756-26.038-5.176L233.787,81.5
	c-6.904-6.904-16.083-10.706-25.846-10.706c-9.761,0-18.94,3.801-25.842,10.705l-24.488,24.487
	c-14.25,14.251-14.249,37.44,0.002,51.689l1.273,1.273c-40.431,4.084-77.911,21.798-107.025,50.912
	C18.432,243.289,0.022,287.735,0.022,335.01s18.41,91.721,51.838,125.15C85.29,493.59,129.736,512,177.012,512
	c47.275,0,91.721-18.41,125.15-51.839c28.829-28.828,46.7-66.873,50.871-107.066l1.316,1.316
	c6.903,6.904,16.081,10.706,25.842,10.706c9.764,0,18.942-3.802,25.846-10.705l24.487-24.487c14.249-14.25,14.249-37.438,0-51.688
	l-37.779-37.778c-8.276-23.023-6.626-40.548,4.93-52.102c11.43-11.43,22.955-14.154,37.547-17.601
	c10.731-2.536,22.894-5.409,35.776-12.411c5.262-2.861,10.349-6.829,16.008-12.49C520.308,112.549,520.302,58.349,486.988,25.031z
	 M287.385,445.384c-29.482,29.482-68.68,45.718-110.373,45.718c-41.694,0-80.892-16.237-110.374-45.718
	c-29.483-29.482-45.718-68.68-45.718-110.373c0-41.694,16.236-80.893,45.718-110.375c29.474-29.474,68.672-45.707,110.37-45.707
	c0.622,0,1.244,0.003,1.869,0.011l26.507,26.507c-9.229-2.007-18.735-3.038-28.383-3.038c-35.417,0-68.712,13.793-93.758,38.836
	c-51.701,51.702-51.701,135.827,0,187.531c25.047,25.045,58.347,38.838,93.765,38.838c35.419,0,68.72-13.793,93.765-38.838
	c24.749-24.75,38.541-57.654,38.83-92.65c0.084-10.029-0.943-19.901-3.024-29.479l26.495,26.495
	C333.561,375.024,317.038,415.731,287.385,445.384z M254.52,254.582l2.912,2.911c41.986,43.524,41.346,113.727-1.433,156.506
	c-21.098,21.098-49.15,32.717-78.988,32.717c-29.837,0-57.888-11.619-78.988-32.717c-43.554-43.554-43.554-114.423,0-157.976
	c21.096-21.097,49.146-32.716,78.98-32.716C206.081,223.307,233.608,234.414,254.52,254.582z M415.746,293.011
	c6.102,6.102,6.102,16.032,0,22.134l-24.486,24.487c-2.957,2.956-6.888,4.585-11.07,4.585c-4.18,0-8.109-1.628-11.065-4.585
	L172.389,142.897c-6.103-6.102-6.103-16.032-0.001-22.135l5.305-5.305l64.828,64.828c2.041,2.041,4.715,3.061,7.388,3.061
	c2.674,0,5.348-1.021,7.388-3.061c4.08-4.08,4.08-10.697,0-14.778l-64.828-64.828l4.405-4.405c2.956-2.956,6.886-4.584,11.065-4.584
	c4.182,0,8.113,1.629,11.07,4.585c0,0,157.332,157.332,157.333,157.333L415.746,293.011z M472.226,131.076
	c-4.198,4.202-7.763,7.03-11.21,8.905c-10.427,5.666-20.226,7.983-30.601,10.433c-15.68,3.704-31.893,7.536-47.519,23.162
	c-10.784,10.782-16.213,24.594-16.213,40.818l-69.066-69.065c16.347-0.008,30.082-5.461,40.825-16.204
	c15.626-15.626,19.457-31.84,23.162-47.52c2.451-10.375,4.767-20.175,10.433-30.601c1.874-3.447,4.703-7.009,8.906-11.212
	c12.187-12.185,28.387-18.895,45.618-18.895c17.241,0,33.453,6.716,45.65,18.91C497.377,64.977,497.383,105.919,472.226,131.076z"/>
</svg>